<?xml version="1.0" encoding="utf-8"?>
<!-- Generator: Adobe Illustrator 24.0.1, SVG Export Plug-In . SVG Version: 6.00 Build 0)  -->
<svg version="1.1" id="Capa_1" xmlns="http://www.w3.org/2000/svg" xmlns:xlink="http://www.w3.org/1999/xlink" x="0px" y="0px"
	 viewBox="0 0 1500 1500" style="enable-background:new 0 0 1500 1500;" xml:space="preserve">
<style type="text/css">
	.st0{fill:#494949;}
	.st1{fill:none;stroke:#494949;stroke-width:60;stroke-linecap:round;stroke-miterlimit:10;}
</style>
<path class="st0" d="M749.5,102c87.4,0,172.2,17.1,252,50.9c38.4,16.2,75.4,36.3,110,59.7c34.3,23.2,66.6,49.8,95.9,79.1
	c29.3,29.3,55.9,61.6,79.1,95.9c23.4,34.6,43.5,71.6,59.7,110c33.7,79.8,50.9,164.6,50.9,252s-17.1,172.2-50.9,252
	c-16.2,38.4-36.3,75.4-59.7,110c-23.2,34.3-49.8,66.6-79.1,95.9s-61.6,55.9-95.9,79.1c-34.6,23.4-71.6,43.5-110,59.7
	c-79.8,33.7-164.6,50.9-252,50.9s-172.2-17.1-252-50.9c-38.4-16.2-75.4-36.3-110-59.7c-34.3-23.2-66.6-49.8-95.9-79.1
	c-29.3-29.3-55.9-61.6-79.1-95.9c-23.4-34.6-43.5-71.6-59.7-110c-33.7-79.8-50.9-164.6-50.9-252s17.1-172.2,50.9-252
	c16.2-38.4,36.3-75.4,59.7-110c23.2-34.3,49.8-66.6,79.1-95.9c29.3-29.3,61.6-55.9,95.9-79.1c34.6-23.4,71.6-43.5,110-59.7
	C577.3,119.1,662.1,102,749.5,102 M749.5,42C358.8,42,42,358.8,42,749.5S358.8,1457,749.5,1457S1457,1140.2,1457,749.5
	S1140.2,42,749.5,42L749.5,42z"/>
<g>
	<path class="st1" d="M853,999c42,0,76,34,76,76s-34,76-76,76s-76-34-76-76"/>
	<path class="st1" d="M818.5,701.6L989,764.4c48.8,18,82,63.5,84.3,115.4l9.9,225.1c0.2,4.2-3.1,7.7-7.3,7.7H919.1"/>
	<path class="st1" d="M673.5,704.2l-48.8,18.9l-54.3,21l-60.2,23.3c-34.5,13.4-59.2,44.1-64.7,80.7l-28.8,190.4
		c-5.9,39,24.3,74,63.7,74H585"/>
	<polyline class="st1" points="786.9,1112.5 777.5,1112.5 763.9,1112.5 	"/>
	<path class="st1" d="M767.1,1150.5H593.5c-3.9,0-7.2-3.1-7.3-7l-17.4-441.3c-0.2-4.2,3.2-7.6,7.3-7.6h33.2c3.1,0,5.9,1.9,6.9,4.9
		L774,1140.7C775.7,1145.5,772.2,1150.5,767.1,1150.5z"/>
	<polyline class="st1" points="853.5,998.5 777.5,998.5 777,998.5 723.2,998.5 	"/>
	<line class="st1" x1="580.5" y1="998.5" x2="533.5" y2="998.5"/>
	<path class="st1" d="M777.5,1112.5"/>
	<path class="st1" d="M777.5,998.5"/>
	<path class="st1" d="M818.5,647v54.7v2.5c0,4-3.3,7.3-7.3,7.3H680.8c-4,0-7.3-3.3-7.3-7.3l0,0v-58.7h0.7"/>
	<ellipse class="st1" cx="748.5" cy="449.5" rx="180.5" ry="195.5"/>
</g>
</svg>
