<?xml version="1.0" encoding="utf-8"?>
<!-- Generator: Adobe Illustrator 24.0.1, SVG Export Plug-In . SVG Version: 6.00 Build 0)  -->
<svg version="1.1" id="Capa_1" xmlns="http://www.w3.org/2000/svg" xmlns:xlink="http://www.w3.org/1999/xlink" x="0px" y="0px"
	 viewBox="0 0 1500 1500" style="enable-background:new 0 0 1500 1500;" xml:space="preserve">
<style type="text/css">
	.st0{fill:#494949;}
</style>
<path class="st0" d="M749.5,102c87.4,0,172.2,17.1,252,50.9c38.4,16.2,75.4,36.3,110,59.7c34.3,23.2,66.6,49.8,95.9,79.1
	c29.3,29.3,55.9,61.6,79.1,95.9c23.4,34.6,43.5,71.6,59.7,110c33.7,79.8,50.9,164.6,50.9,252s-17.1,172.2-50.9,252
	c-16.2,38.4-36.3,75.4-59.7,110c-23.2,34.3-49.8,66.6-79.1,95.9s-61.6,55.9-95.9,79.1c-34.6,23.4-71.6,43.5-110,59.7
	c-79.8,33.7-164.6,50.9-252,50.9s-172.2-17.1-252-50.9c-38.4-16.2-75.4-36.3-110-59.7c-34.3-23.2-66.6-49.8-95.9-79.1
	c-29.3-29.3-55.9-61.6-79.1-95.9c-23.4-34.6-43.5-71.6-59.7-110c-33.7-79.8-50.9-164.6-50.9-252s17.1-172.2,50.9-252
	c16.2-38.4,36.3-75.4,59.7-110c23.2-34.3,49.8-66.6,79.1-95.9c29.3-29.3,61.6-55.9,95.9-79.1c34.6-23.4,71.6-43.5,110-59.7
	C577.3,119.1,662.1,102,749.5,102 M749.5,42C358.8,42,42,358.8,42,749.5S358.8,1457,749.5,1457S1457,1140.2,1457,749.5
	S1140.2,42,749.5,42L749.5,42z"/>
<path class="st0" d="M351,618.5c19.7-60,38.8-117.7,57.5-175.6c3.3-10.1,10.4-9.3,18.2-9.3c166.5,0.1,332.9,0.1,499.4,0.1
	c56,0,112.1,0.1,168.1,0c8.1,0,14.2-0.1,17.5,10.1c18.5,57.4,37.8,114.6,57.2,172.8c-3.4,1.1-6.3,2.6-9.3,3
	c-24.8,3.1-45.9,13.8-64.6,30.1c-36.8,32.2-81.2,31.8-117.6-0.3c-48.7-43-108.5-43-157.8,0c-36.6,32-81.5,32.2-117.9,0.5
	c-50.2-43.7-109.3-43.7-159,0.1c-33.6,29.6-78.2,32.3-111.2,4.3C408.4,634.9,384,620.7,351,618.5z"/>
<path class="st0" d="M1081,1050.7c-214.9,0-428.4,0-642.7,0c0-115.7,0-230.3,0-345.6c17.5,2.7,35,5.4,54.2,8.4
	c0,94.8,0,190.8,0,288.3c25.8,0,50.1,0,76.8,0c0-76.6,0-153.7,0-233c51.4,0,100.5,0,152.4,0c0,77,0,155.1,0,234.6
	c44.4,0,86.1,0,127.8,0c52.7,0,105.5-0.5,158.2,0.3c14.7,0.2,19.8-3.5,19.6-19.1c-0.8-84.6-0.4-169.2-0.4-253.8c0-5.9,0-11.9,0-17.9
	c18.5-2.8,35.7-5.4,54.1-8.2C1081,819.2,1081,934.1,1081,1050.7z"/>
<path class="st0" d="M883.6,877.8c-21.4,0-42.8-0.4-64.2,0.2c-13.8,0.3-20.3-5.1-20-19.3c0.4-25.2,0.4-50.5,0-75.8
	c-0.2-12.6,5.7-18.2,17.8-18.2c44.5,0,88.9,0,133.4-0.1c12,0,18.6,5.2,18.5,17.7c0,25.8,0,51.6,0,77.4c0,13.2-6.7,18.5-19.7,18.2
	C927.5,877.5,905.5,877.8,883.6,877.8z"/>
</svg>
