<?xml version="1.0" encoding="utf-8"?>
<!-- Generator: Adobe Illustrator 24.0.1, SVG Export Plug-In . SVG Version: 6.00 Build 0)  -->
<svg version="1.1" id="Capa_1" xmlns="http://www.w3.org/2000/svg" xmlns:xlink="http://www.w3.org/1999/xlink" x="0px" y="0px"
	 viewBox="0 0 1500 1500" style="enable-background:new 0 0 1500 1500;" xml:space="preserve">
<style type="text/css">
	.st0{fill:#494949;}
</style>
<path class="st0" d="M749.5,102c87.4,0,172.2,17.1,252,50.9c38.4,16.2,75.4,36.3,110,59.7c34.3,23.2,66.6,49.8,95.9,79.1
	c29.3,29.3,55.9,61.6,79.1,95.9c23.4,34.6,43.5,71.6,59.7,110c33.7,79.8,50.9,164.6,50.9,252s-17.1,172.2-50.9,252
	c-16.2,38.4-36.3,75.4-59.7,110c-23.2,34.3-49.8,66.6-79.1,95.9s-61.6,55.9-95.9,79.1c-34.6,23.4-71.6,43.5-110,59.7
	c-79.8,33.7-164.6,50.9-252,50.9s-172.2-17.1-252-50.9c-38.4-16.2-75.4-36.3-110-59.7c-34.3-23.2-66.6-49.8-95.9-79.1
	c-29.3-29.3-55.9-61.6-79.1-95.9c-23.4-34.6-43.5-71.6-59.7-110c-33.7-79.8-50.9-164.6-50.9-252s17.1-172.2,50.9-252
	c16.2-38.4,36.3-75.4,59.7-110c23.2-34.3,49.8-66.6,79.1-95.9c29.3-29.3,61.6-55.9,95.9-79.1c34.6-23.4,71.6-43.5,110-59.7
	C577.3,119.1,662.1,102,749.5,102 M749.5,42C358.8,42,42,358.8,42,749.5S358.8,1457,749.5,1457S1457,1140.2,1457,749.5
	S1140.2,42,749.5,42L749.5,42z"/>
<path class="st0" d="M635.1,964.9c-76.6,0-149.1,0.1-221.7-0.1c-14.5,0-18.1-9.5-18.1-22.5c0.2-75.2,0.1-150.3,0.1-225.5
	c0-70.6,0-141.2,0-211.9c0-21.3,3.5-24.7,24.6-24.7c18.6,0,37.2,0,52.3,0c6.2,24.4,11.3,47.1,17.7,69.4
	c11.4,39.7,23.4,79.2,35.6,118.7c11.9,38.4,50.4,49.7,81.2,24.1c18.2-15.1,35.9-30.7,53.9-46.1c1.5,0.4,3,0.7,4.5,1.1
	c-0.8,7.1-0.2,14.7-2.5,21.3c-22.4,63.7-44.8,127.4-68.1,190.8c-8.1,21.9-6.2,41,8.1,59.6C613.4,933,623,947.7,635.1,964.9z"/>
<path class="st0" d="M840.2,646.3c17.6,15,35.1,30,52.7,44.9c32.2,27.3,70.7,16.3,83.1-23.9c15.5-50.6,30.8-101.3,45.5-152.2
	c3-10.4,3-21.6,4.7-34.6c20.5,0,43-0.6,65.5,0.2c11.4,0.4,14.3,9.3,14.3,19.5c-0.1,25.7,0,51.5,0,77.2c0,120.1,0,240.2,0,360.4
	c0,23.7-3.4,27.1-27.1,27.1c-65.1,0-130.2,0-195.4,0c-4.4,0-8.8,0-16.9,0c11.6-16.7,21-31.3,31.6-45c14.7-19,16.7-38.4,8.4-61
	c-23.4-63.4-45.7-127.2-68-190.9c-2.2-6.3-1.7-13.6-2.4-20.5C837.5,647.2,838.8,646.8,840.2,646.3z"/>
<path class="st0" d="M678.2,589c-27.9,23.8-54.2,46.4-80.5,68.9c-4.6,3.9-9,8.2-13.9,11.7c-11.2,8-22.3,5.1-26.4-8.1
	c-16.4-53-32.1-106.1-48-159.3c-2.9-9.7,1.1-16.6,9.5-21.4c35.9-20.5,71.7-41.2,107.8-61.3c5.4-3,12.5-4,18.9-4
	c70.2-0.3,140.3-0.4,210.5,0.1c7.7,0.1,16.1,2.6,22.8,6.3c33.6,18.5,66.5,38,100,56.6c12.8,7.1,16,15.6,11.5,29.9
	c-15.3,48.6-29.4,97.5-44.1,146.2c-6.8,22.4-17,25.3-34.8,10.1c-25.3-21.6-50.5-43.4-75.8-65c-3.7-3.2-7.6-6-12.7-10.1
	c-7.8,23.3-15.7,45-22.4,67.1c-3.8,12.6-11.2,18.1-24.3,17.7c-17.1-0.5-34.3-0.5-51.5,0c-13.2,0.4-20.3-5.3-24.2-17.9
	C694,634.4,686.2,612.7,678.2,589z M840.1,448.6c-60.3,0-118.5,0-178.7,0c11.8,31.3,22.9,61.4,34.8,91.2c1.1,2.7,7.1,4.7,10.9,4.8
	c29.2,0.4,58.5,0.4,87.7,0c3.7-0.1,9.6-2.3,10.7-5C817.2,509.8,828.3,479.7,840.1,448.6z"/>
<path class="st0" d="M686.4,699.1c44.2,10.3,85.4,11,128.3-0.2c15.4,43.1,31.6,88.2,47.7,133.2c1.2,3.3,2.3,6.7,3.5,10
	c19,55.7,21.3,35.1-10.9,82.5c-28.1,41.3-57.2,81.9-85.9,122.8c-13.5,19.2-23.3,19.3-36.6,0.3c-34.5-49.2-69.1-98.2-103-147.7
	c-4.1-6-8.2-15.7-6.2-21.7C643.8,817.7,665.6,757.5,686.4,699.1z"/>
</svg>
