<?xml version="1.0" encoding="utf-8"?>
<!-- Generator: Adobe Illustrator 24.0.1, SVG Export Plug-In . SVG Version: 6.00 Build 0)  -->
<svg version="1.1" id="Capa_1" xmlns="http://www.w3.org/2000/svg" xmlns:xlink="http://www.w3.org/1999/xlink" x="0px" y="0px"
	 viewBox="0 0 1500 1500" style="enable-background:new 0 0 1500 1500;" xml:space="preserve">
<style type="text/css">
	.st0{fill:#494949;}
</style>
<path class="st0" d="M749.5,102c87.4,0,172.2,17.1,252,50.9c38.4,16.2,75.4,36.3,110,59.7c34.3,23.2,66.6,49.8,95.9,79.1
	c29.3,29.3,55.9,61.6,79.1,95.9c23.4,34.6,43.5,71.6,59.7,110c33.7,79.8,50.9,164.6,50.9,252s-17.1,172.2-50.9,252
	c-16.2,38.4-36.3,75.4-59.7,110c-23.2,34.3-49.8,66.6-79.1,95.9s-61.6,55.9-95.9,79.1c-34.6,23.4-71.6,43.5-110,59.7
	c-79.8,33.7-164.6,50.9-252,50.9s-172.2-17.1-252-50.9c-38.4-16.2-75.4-36.3-110-59.7c-34.3-23.2-66.6-49.8-95.9-79.1
	c-29.3-29.3-55.9-61.6-79.1-95.9c-23.4-34.6-43.5-71.6-59.7-110c-33.7-79.8-50.9-164.6-50.9-252s17.1-172.2,50.9-252
	c16.2-38.4,36.3-75.4,59.7-110c23.2-34.3,49.8-66.6,79.1-95.9c29.3-29.3,61.6-55.9,95.9-79.1c34.6-23.4,71.6-43.5,110-59.7
	C577.3,119.1,662.1,102,749.5,102 M749.5,42C358.8,42,42,358.8,42,749.5S358.8,1457,749.5,1457S1457,1140.2,1457,749.5
	S1140.2,42,749.5,42L749.5,42z"/>
<path class="st0" d="M611.7,568.6c42.8,35.6,57.2,80.8,56.3,133.6c-1.3,71.5-0.4,143-0.3,214.5c0,34.5-4,38.6-38.7,38.7
	c-7.4,0-14.8,0-24.6,0c0,42,0,82,0,122c0,30.2-4.3,34.6-33.8,34.7c-34.7,0.1-69.4,0.2-104.2,0c-22.7-0.1-29.1-6.5-29.3-29.2
	c-0.4-40.2-0.3-80.3-0.5-120.5c0-1.3-0.7-2.5-2.1-7c-10.9,0-22.8,0.2-34.8,0c-16.4-0.3-25.3-8.3-25.3-25.2
	c0.1-85.8-0.8-171.6,0.8-257.3c0.8-42.3,22.4-76.3,54.6-104.4c-20.4-41.8-18.4-81.5,10.1-119c2.4-3.2,1.4-10,0.3-14.8
	c-8.3-38.1,3.5-71.2,33.1-91.8c28.5-19.9,65.3-20.2,94-0.8c30,20.3,42.2,53.5,34,91.4c-1.2,5.4-1.7,13,1.1,16.8
	C630,487.1,631.8,526.2,611.7,568.6z M623.6,913c0-84.5,1.7-166.7-1.3-248.7c-0.7-18.7-17.5-37.1-27.8-55.1
	c-5.4-9.3-13.1-8.2-22.4-3c-34.1,19.2-69,19.1-102.9-0.3c-9.7-5.6-15.5-4-22.7,3.5c-21.3,22.5-30.6,49.2-30.5,79.8
	c0.1,54.4,0,108.8,0,163.3c0,19.5,0,39.1,0,60.5c13.5,0,24.3-0.2,35.1,0.1c21.3,0.6,27.9,7.1,28.1,28.6c0.3,27.2,0.1,54.4,0.1,81.6
	c0,15.3,0,30.6,0,45.6c29.8,0,55.9,0,83.3,0c0-41.6,0-81.7,0-121.8c0-28.8,5.2-33.9,34.8-34C606.1,913,614.7,913,623.6,913z
	 M583.3,515.2c-0.2-34.2-28.2-61.9-62.5-61.9c-34.3,0-62.2,27.7-62.4,62c-0.2,35.2,28.3,63.4,63.6,62.9
	C556.4,577.6,583.5,549.8,583.3,515.2z M562.2,414.2c1.6-16-5.2-29.7-20.3-38.9c-14.6-8.9-29.8-8.5-44,1.2
	c-13.8,9.5-20.4,22.5-17.9,37.7C507.5,414.2,533.4,414.2,562.2,414.2z"/>
<path class="st0" d="M785.6,506c-23.4-57.7-13.3-105,27.8-136.3c37-28.2,88.6-28.4,125.5-0.5c41.7,31.5,51.7,77.6,28.8,136.9
	c45.6,36.7,58.2,86.8,55.8,143.5c-1.7,42.1-0.8,84.4-0.1,126.6c0.3,15.9-3.5,28.8-18.7,35c-39.2,16-48.2,45-45.7,85.5
	c3.7,61,1,122.5,0.9,183.7c-0.1,26.3-5.1,31.4-30.8,31.5c-35.4,0.1-70.8,0.2-106.2,0c-23.8-0.1-30.2-6.2-30.3-30.3
	c-0.2-73.5-0.4-147,0.3-220.5c0.1-14.5-4.2-23.2-16.5-31.4c-56.4-38-45.4-18-46.4-87.2c-0.5-32,1.2-64-0.3-96
	C727.1,591.1,740.4,542.5,785.6,506z M918.2,1069.1c0-9.3,0-17.2,0-25.2c0-54.4,3.4-109.1-1-163.1c-3.7-45.5,7.9-77.2,50.6-96.4
	c6.2-2.8,12.6-13.1,12.8-20.1c1-48.9,0.9-97.9,0.3-146.9c-0.3-27.7-10.9-51.8-31-70.9c-3.9-3.7-13.2-7.2-16.7-5.1
	c-40.8,23.7-80.3,20.5-119.7-4c-28.4,22-41.2,50.7-41.7,85.2c-0.4,34,2.9,68.3-0.9,101.9c-4.4,38.8,7.4,65,43.5,80.3
	c16.6,7,21,20.4,20.8,38c-0.8,68-0.3,136-0.3,204c0,7.2,0,14.5,0,22.4C863.8,1069.1,889.9,1069.1,918.2,1069.1z M938.9,453.7
	c0.3-34.3-27-62.8-61.1-63.6c-34.6-0.9-63.8,28-63.7,63.1c0.1,34.4,27.8,62.2,62.1,62.4C910.3,515.7,938.6,487.9,938.9,453.7z"/>
<path class="st0" d="M1085.6,893.2c0-63.2-0.5-126.5,0.2-189.7c0.5-40.1,29.6-69.9,68.6-72.7c37.1-2.7,71.9,24.6,76.4,61.8
	c1.1,8.8-2,20.9-7.8,27.2c-10.5,11.4-27.8,3.5-32.1-13c-7.1-27.2-17.3-36.4-37.1-33.4c-18.3,2.8-26.5,15.3-26.5,41.7
	c-0.1,119.7,0,239.4,0,359.1c0,2.7-0.1,5.4,0.1,8.2c0.7,15.1-2.7,28.8-20.5,29c-17.6,0.2-21.4-13.1-21.4-28.4
	c0.2-47.6,0.1-95.2,0.1-142.8C1085.6,924.5,1085.6,908.9,1085.6,893.2z"/>
</svg>
