<?xml version="1.0" encoding="utf-8"?>
<!-- Generator: Adobe Illustrator 24.0.1, SVG Export Plug-In . SVG Version: 6.00 Build 0)  -->
<svg version="1.1" id="Capa_1" xmlns="http://www.w3.org/2000/svg" xmlns:xlink="http://www.w3.org/1999/xlink" x="0px" y="0px"
	 viewBox="0 0 1500 1500" style="enable-background:new 0 0 1500 1500;" xml:space="preserve">
<style type="text/css">
	.st0{fill:#494949;}
</style>
<g>
	<path class="st0" d="M749.5,102c87.4,0,172.2,17.1,252,50.9c38.4,16.2,75.4,36.3,110,59.7c34.3,23.2,66.6,49.8,95.9,79.1
		c29.3,29.3,55.9,61.6,79.1,95.9c23.4,34.6,43.5,71.6,59.7,110c33.7,79.8,50.9,164.6,50.9,252s-17.1,172.2-50.9,252
		c-16.2,38.4-36.3,75.4-59.7,110c-23.2,34.3-49.8,66.6-79.1,95.9s-61.6,55.9-95.9,79.1c-34.6,23.4-71.6,43.5-110,59.7
		c-79.8,33.7-164.6,50.9-252,50.9s-172.2-17.1-252-50.9c-38.4-16.2-75.4-36.3-110-59.7c-34.3-23.2-66.6-49.8-95.9-79.1
		c-29.3-29.3-55.9-61.6-79.1-95.9c-23.4-34.6-43.5-71.6-59.7-110c-33.7-79.8-50.9-164.6-50.9-252s17.1-172.2,50.9-252
		c16.2-38.4,36.3-75.4,59.7-110c23.2-34.3,49.8-66.6,79.1-95.9c29.3-29.3,61.6-55.9,95.9-79.1c34.6-23.4,71.6-43.5,110-59.7
		C577.3,119.1,662.1,102,749.5,102 M749.5,42C358.8,42,42,358.8,42,749.5S358.8,1457,749.5,1457S1457,1140.2,1457,749.5
		S1140.2,42,749.5,42L749.5,42z"/>
</g>
<g>
</g>
<g>
</g>
<g>
	<g>
		<path class="st0" d="M546.8,1059.4c-9.6,0-19.3-0.5-29.2-1.6c-24.9-2.7-62.7-9.3-100.9-24.8c-39.4-16-69.6-37.7-89.7-64.3
			c-10-13.2-7.3-32,5.9-42c13.2-10,32-7.3,42,5.9c29.8,39.5,96.6,59.8,149.2,65.6c24.4,2.7,60.3,2.4,92.7-14.2
			c60-30.7,71.7-98.4,84.1-170c2.4-13.8,4.9-28.1,7.7-41.8l4.9-23.9l24.5,0c20.1,0,40.9,1,61.1,1.9c39.5,1.8,80.3,3.7,116-1.5
			c10.6-1.5,19.1-5.7,23.5-11.3c6.1-7.9,4.5-22.8-3.4-31.4c-11.2-12.2-30.2-12.4-60-11.2c-6.5,0.2-13.2,0.5-19.8,0.5c0,0,0,0,0,0
			H576.1l12.2-38.9c10.1-32.2,24.2-62.2,38-91.2c6.9-14.6,14-29.7,20.3-44.4c2-4.7,5.3-12.5,5-16c-0.1-1.8-2.8-5.5-7.1-7.4
			c-5.8-2.5-13.9-2.5-22.9,0c-29.2,8.1-50.2,34.7-72.5,62.9c-1.6,2-3.2,4-4.8,6c-15.6,19.6-32.1,40.4-48.7,61.1
			c-1.3,1.6-4.9,7-7.9,11.4c-22,32.8-36.9,52.9-57.2,56.3l-2.4,0.4h-85.4c-16.6,0-30-13.4-30-30c0-16.6,13.4-30,30-30h73.4
			c6.7-7.7,17.4-23.5,21.8-30.2c4.4-6.6,7.9-11.8,10.8-15.3c16.5-20.6,33-41.4,48.5-60.9c1.5-1.9,3.1-3.9,4.6-5.9
			c26-32.9,55.4-70.2,103.5-83.5c22.3-6.2,43.8-5.3,62.3,2.6c24.5,10.4,41.6,33.1,43.5,57.9c1.4,18.2-5.2,33.9-9.7,44.3
			c-6.8,15.9-14.1,31.5-21.3,46.6c-7.2,15.1-14.1,29.8-20.3,44.5h195.4c5.5,0,11.3-0.2,17.5-0.5c31.9-1.2,75.7-2.9,106.5,30.6
			c27.7,30.1,30.6,77.8,6.7,108.7c-14,18-36.1,30.1-62.2,33.9c-41.4,6.1-85.1,4-127.4,2.1c-11.5-0.5-22.7-1-33.6-1.4
			c-0.9,5.1-1.8,10.2-2.7,15.5c-6.7,38.9-13.7,79.1-29.2,116.2c-18.9,45.2-47.3,76.9-86.6,97
			C615.7,1051.9,582.5,1059.4,546.8,1059.4z"/>
	</g>
	<g>
		<path class="st0" d="M1156.9,752h-82.1c-16.6,0-30-13.4-30-30s13.4-30,30-30h82.1c16.6,0,30,13.4,30,30S1173.5,752,1156.9,752z"/>
	</g>
	<g>
		<path class="st0" d="M851.1,544.7c-16.6,0-30-13.4-30-30v-82.1c0-16.6,13.4-30,30-30s30,13.4,30,30v82.1
			C881.1,531.2,867.7,544.7,851.1,544.7z"/>
	</g>
	<g>
		<path class="st0" d="M851.1,1039.9c-16.6,0-30-13.4-30-30v-82.1c0-16.6,13.4-30,30-30s30,13.4,30,30v82.1
			C881.1,1026.5,867.7,1039.9,851.1,1039.9z"/>
	</g>
	<g>
		<path class="st0" d="M1060.7,967.7c-7.7,0-15.4-2.9-21.2-8.8l-58.1-58.1c-11.7-11.7-11.7-30.7,0-42.4c11.7-11.7,30.7-11.7,42.4,0
			l58.1,58.1c11.7,11.7,11.7,30.7,0,42.4C1076,964.8,1068.4,967.7,1060.7,967.7z"/>
	</g>
	<g>
		<path class="st0" d="M1002.6,585.5c-7.7,0-15.4-2.9-21.2-8.8c-11.7-11.7-11.7-30.7,0-42.4l58.1-58.1c11.7-11.7,30.7-11.7,42.4,0
			c11.7,11.7,11.7,30.7,0,42.4l-58.1,58.1C1018,582.6,1010.3,585.5,1002.6,585.5z"/>
	</g>
</g>
</svg>
