<?xml version="1.0" encoding="utf-8"?>
<!-- Generator: Adobe Illustrator 24.0.1, SVG Export Plug-In . SVG Version: 6.00 Build 0)  -->
<svg version="1.1" id="Capa_1" xmlns="http://www.w3.org/2000/svg" xmlns:xlink="http://www.w3.org/1999/xlink" x="0px" y="0px"
	 viewBox="0 0 1500 1500" style="enable-background:new 0 0 1500 1500;" xml:space="preserve">
<style type="text/css">
	.st0{fill:#494949;}
</style>
<path class="st0" d="M749.5,102c87.4,0,172.2,17.1,252,50.9c38.4,16.2,75.4,36.3,110,59.7c34.3,23.2,66.6,49.8,95.9,79.1
	c29.3,29.3,55.9,61.6,79.1,95.9c23.4,34.6,43.5,71.6,59.7,110c33.7,79.8,50.9,164.6,50.9,252s-17.1,172.2-50.9,252
	c-16.2,38.4-36.3,75.4-59.7,110c-23.2,34.3-49.8,66.6-79.1,95.9s-61.6,55.9-95.9,79.1c-34.6,23.4-71.6,43.5-110,59.7
	c-79.8,33.7-164.6,50.9-252,50.9s-172.2-17.1-252-50.9c-38.4-16.2-75.4-36.3-110-59.7c-34.3-23.2-66.6-49.8-95.9-79.1
	c-29.3-29.3-55.9-61.6-79.1-95.9c-23.4-34.6-43.5-71.6-59.7-110c-33.7-79.8-50.9-164.6-50.9-252s17.1-172.2,50.9-252
	c16.2-38.4,36.3-75.4,59.7-110c23.2-34.3,49.8-66.6,79.1-95.9c29.3-29.3,61.6-55.9,95.9-79.1c34.6-23.4,71.6-43.5,110-59.7
	C577.3,119.1,662.1,102,749.5,102 M749.5,42C358.8,42,42,358.8,42,749.5S358.8,1457,749.5,1457S1457,1140.2,1457,749.5
	S1140.2,42,749.5,42L749.5,42z"/>
<g>
	<path class="st0" d="M660.8,963.8c27.3,0,54.1-0.1,80.9,0c24.4,0.1,38.8,11.4,39.1,30c0.3,19.8-13.9,31.2-39.5,31.3
		c-35.1,0.1-70.3,0.2-105.4,0c-27.2-0.1-38.7-11.5-38.9-38.3c-0.2-24.9-1-49.9,0.1-74.7c1.6-35.1-11.7-62.4-36.6-86.7
		c-67.5-65.9-96.5-146-82.3-240c17.3-114.6,108.4-209.2,220.3-230c115.7-21.4,235.7,34.6,293,136.8
		c56.9,101.5,42.5,229.7-35.7,317.4c-6.4,7.1-12.9,14.2-19.8,20.8c-21.8,20.5-31.8,45.6-31.8,75.3c0.1,26.8-0.1,53.7-0.5,80.5
		c-0.4,24.6-12.1,39-30.6,38.3c-19.2-0.7-30.6-14.8-30.9-38.4c-0.3-20.4,0.4-40.9-0.7-61.3c-3-58.1,18.2-105.6,59.6-145.7
		c41.4-40.2,60.9-90.7,62.8-147.9c3.3-96.8-57.3-179.5-151.8-208.4c-93.9-28.7-189.7,6.2-242.5,88.4
		c-51.9,80.8-46.4,189.3,21.9,256.6c51,50.1,73.2,105.7,66.9,175c-0.5,5.1,0.1,10.2,0.3,15.3C658.7,959.3,659.4,960.4,660.8,963.8z"
		/>
	<path class="st0" d="M719.5,827c0-3.2-0.2-6.4,0-9.6c2.1-24.6,1.1-45.3-26.4-59.4c-21.4-11-30.6-35.2-34.2-59.5
		c-2.8-19.2,10-38.6,26.3-41c16.8-2.4,30.6,9.9,34.4,30.6c3.3,17.9,16.1,30.4,31.9,29.7c18.2-0.8,26.7-12.1,29.5-29.4
		c3.6-22,16.1-32.7,34.1-30.6c18.6,2.2,29.5,17.1,27,39.3c-3.7,32.1-20.3,56.2-49.1,70.8c-9.5,4.8-12.6,10.4-12.4,20.6
		c0.6,26.2,0.5,52.3,0.1,78.5c-0.3,20.3-14.6,34.9-33,34.5c-16.6-0.4-27.7-13.7-28.2-34.4c-0.3-13.4-0.1-26.8-0.1-40.2
		C719.5,827,719.5,827,719.5,827z"/>
	<path class="st0" d="M751.6,1147.8c-19.1,0-38.2,0.2-57.3-0.1c-20.4-0.3-34.6-13.9-34.7-32.6c-0.1-17,12.6-28.3,33.5-28.5
		c37.6-0.3,75.1-0.3,112.7,0c21,0.1,35.3,13,35.8,31.4c0.5,17.4-13.1,29.2-34.6,29.7c-9.5,0.2-19.1,0.1-28.6,0.1
		C769.4,1147.8,760.5,1147.8,751.6,1147.8z"/>
</g>
</svg>
