<?xml version="1.0" encoding="utf-8"?>
<!-- Generator: Adobe Illustrator 24.0.1, SVG Export Plug-In . SVG Version: 6.00 Build 0)  -->
<svg version="1.1" id="Capa_1" xmlns="http://www.w3.org/2000/svg" xmlns:xlink="http://www.w3.org/1999/xlink" x="0px" y="0px"
	 viewBox="0 0 1500 1500" style="enable-background:new 0 0 1500 1500;" xml:space="preserve">
<style type="text/css">
	.st0{fill:#494949;}
	.st1{fill:none;stroke:#494949;stroke-width:60;stroke-linecap:round;stroke-miterlimit:10;}
</style>
<path class="st0" d="M749.5,102c87.4,0,172.2,17.1,252,50.9c38.4,16.2,75.4,36.3,110,59.7c34.3,23.2,66.6,49.8,95.9,79.1
	c29.3,29.3,55.9,61.6,79.1,95.9c23.4,34.6,43.5,71.6,59.7,110c33.7,79.8,50.9,164.6,50.9,252s-17.1,172.2-50.9,252
	c-16.2,38.4-36.3,75.4-59.7,110c-23.2,34.3-49.8,66.6-79.1,95.9s-61.6,55.9-95.9,79.1c-34.6,23.4-71.6,43.5-110,59.7
	c-79.8,33.7-164.6,50.9-252,50.9s-172.2-17.1-252-50.9c-38.4-16.2-75.4-36.3-110-59.7c-34.3-23.2-66.6-49.8-95.9-79.1
	c-29.3-29.3-55.9-61.6-79.1-95.9c-23.4-34.6-43.5-71.6-59.7-110c-33.7-79.8-50.9-164.6-50.9-252s17.1-172.2,50.9-252
	c16.2-38.4,36.3-75.4,59.7-110c23.2-34.3,49.8-66.6,79.1-95.9c29.3-29.3,61.6-55.9,95.9-79.1c34.6-23.4,71.6-43.5,110-59.7
	C577.3,119.1,662.1,102,749.5,102 M749.5,42C358.8,42,42,358.8,42,749.5S358.8,1457,749.5,1457S1457,1140.2,1457,749.5
	S1140.2,42,749.5,42L749.5,42z"/>
<path class="st1" d="M783.4,758.1c-60.3-70-122.2-141.7-183.5-212.8c44.3-43.9,88.1-87.4,133.1-132
	c69.8,60.4,141.4,122.3,211.9,183.3C891.1,650.4,837.7,703.7,783.4,758.1z"/>
<path class="st1" d="M632.6,644.5c21.1,24.6,41.2,48,61.9,72.1c-31.8,36.2-63,71.8-94.2,107.4c-48.7,55.6-97.3,111.3-146.3,166.7
	c-20.8,23.6-47.2,31.6-77.3,22c-28.9-9.2-45.4-30.3-48.9-60.3c-3-25.7,6.9-46.8,26.3-63.7c75.9-66.5,151.8-133,227.6-199.5
	C598.3,674.7,614.8,660.2,632.6,644.5z"/>
<path class="st0" d="M1160.7,1103c-141.9,0-282.1,0-423.5,0c0-24.1-2.2-48.1,0.6-71.5c3-24.3,26.3-42.5,51.1-42.6
	c106.4-0.3,212.9-0.4,319.3,0.1c28.6,0.1,50.7,23.4,52.3,53.5C1161.5,1061.9,1160.7,1081.4,1160.7,1103z M1122.3,1066.4
	c3.3-36.8-0.6-41-35.6-41c-93.9,0-187.8-0.1-281.7-0.1c-29.7,0-37.6,10.5-30.3,41.1C890.2,1066.4,1005.8,1066.4,1122.3,1066.4z"/>
<path class="st0" d="M1114.6,960.4c-11.9,0-22.8,0-33.5,0c-8.4-27-8.4-27-37.5-27c-65.4,0-130.9,0-196.3,0.1
	c-23.5,0-26.5,2.5-31.7,27.1c-5.2,0-11,0-16.7,0c-5.4,0-10.8,0-16,0c-5.7-33.6,17.6-63.8,50.9-64.1c75.4-0.7,150.9-0.7,226.3,0
	C1094.8,896.7,1117.8,924.3,1114.6,960.4z"/>
<path class="st1" d="M1004,657.7c27.3,17.2,31.8,50.5,8.5,74.2c-31.8,32.4-64.1,64.4-96.3,96.4c-25.6,25.4-55.5,22.7-76.9-5.6
	C894.2,767.6,949,712.7,1004,657.7z"/>
<path class="st1" d="M675.5,362.1C633.4,404,591.3,445.9,549,487.9c-29.1-20.7-32.2-52.9-6.4-79.1c16.5-16.7,33.3-33.2,49.9-49.7
	C621.2,330.6,647.8,331.7,675.5,362.1z"/>
</svg>
