<?xml version="1.0" encoding="utf-8"?>
<!-- Generator: Adobe Illustrator 24.0.1, SVG Export Plug-In . SVG Version: 6.00 Build 0)  -->
<svg version="1.1" id="Capa_1" xmlns="http://www.w3.org/2000/svg" xmlns:xlink="http://www.w3.org/1999/xlink" x="0px" y="0px"
	 viewBox="0 0 1500 1500" style="enable-background:new 0 0 1500 1500;" xml:space="preserve">
<style type="text/css">
	.st0{fill:#494949;}
	.st1{fill:#494949;stroke:#494949;stroke-width:20;stroke-miterlimit:10;}
	.st2{fill:#494949;stroke:#494949;stroke-width:14;stroke-miterlimit:10;}
</style>
<path class="st0" d="M749.5,102c87.4,0,172.2,17.1,252,50.9c38.4,16.2,75.4,36.3,110,59.7c34.3,23.2,66.6,49.8,95.9,79.1
	c29.3,29.3,55.9,61.6,79.1,95.9c23.4,34.6,43.5,71.6,59.7,110c33.7,79.8,50.9,164.6,50.9,252s-17.1,172.2-50.9,252
	c-16.2,38.4-36.3,75.4-59.7,110c-23.2,34.3-49.8,66.6-79.1,95.9s-61.6,55.9-95.9,79.1c-34.6,23.4-71.6,43.5-110,59.7
	c-79.8,33.7-164.6,50.9-252,50.9s-172.2-17.1-252-50.9c-38.4-16.2-75.4-36.3-110-59.7c-34.3-23.2-66.6-49.8-95.9-79.1
	c-29.3-29.3-55.9-61.6-79.1-95.9c-23.4-34.6-43.5-71.6-59.7-110c-33.7-79.8-50.9-164.6-50.9-252s17.1-172.2,50.9-252
	c16.2-38.4,36.3-75.4,59.7-110c23.2-34.3,49.8-66.6,79.1-95.9c29.3-29.3,61.6-55.9,95.9-79.1c34.6-23.4,71.6-43.5,110-59.7
	C577.3,119.1,662.1,102,749.5,102 M749.5,42C358.8,42,42,358.8,42,749.5S358.8,1457,749.5,1457S1457,1140.2,1457,749.5
	S1140.2,42,749.5,42L749.5,42z"/>
<path class="st1" d="M629.7,945c-3.2-3-5.9-6.8-9.6-8.7c-66.7-35.6-100.5-94.5-116.3-165.5c-3.2-14.6-7.5-23.6-23.8-28.7
	c-28.4-8.8-43.8-31.5-47.9-60.6c-4.4-31.1,2.9-59.5,29.8-77.7c13.3-8.9,15.9-18.2,15.9-32.4c0.1-36.2-2.5-73.2,3.6-108.6
	c16.5-96.1,82.4-147.5,171.3-171.4c77.8-20.9,155.1-16.2,228.1,21.6c76.8,39.8,117.6,102.4,118.2,189.8c0.1,14.7,0.4,29.3-0.1,44
	c-0.9,25.6,0.7,45.9,24.6,66.4c43.5,37.4,23.3,113-31.3,130.9c-10.8,3.5-15.8,7.9-18.1,19c-15.2,75.2-49.3,137.5-120.3,174.4
	c-2.3,1.2-4.1,3.5-5.7,5.7c-0.6,0.9,0,2.6,0.3,7.5c18.1,0,36.5-0.2,54.9,0c96.3,1.4,173.2,77.5,174.6,172.8
	c0.7,43.2-11.6,63.1-53.4,72.8c-48.2,11.1-97.7,16-146.1,26.3c-125.4,26.7-248.6,6.6-371.9-14.8c-22.6-3.9-45.2-8.8-67.1-15.6
	c-27-8.4-39.7-28.3-40.9-56.8c-4.3-99.2,71.2-181.3,170.9-184.6c19.3-0.6,38.7-0.1,58.1-0.1C628.2,948.8,629,946.9,629.7,945z
	 M733.7,296c-33.8,8.4-71.5,15.2-107.3,27.7c-27.1,9.5-39.4,31.5-34.1,56c12.4,57.2-11.2,98.8-52.6,134.3
	c-24.4,20.9-37.6,47.6-41.6,79.7c-0.9,7.3-7.1,16.3-13.5,20.1c-24.9,14.8-36.2,35.7-31.9,64.5c3.7,25.2,19.7,43.4,46,47.5
	c15.6,2.4,20.1,9.3,22.4,24c17.5,112.1,84.4,178.2,191.1,190.1c104,11.6,187.7-34.7,225-126c8.6-21.1,13.9-43.9,18.4-66.3
	c2.6-12.7,6.1-19.1,20.2-21.3c28.1-4.4,44.3-22,48-47.9c4.2-29.2-6.5-49.9-31.9-64.4c-5.4-3.1-12.7-9.1-12.9-14
	c-2-42.7-25.5-71.9-55.7-99.1c-31.1-28-49.8-64.2-40.6-106.6c8.5-39-8.8-66.2-47.7-77.5C803.5,307.8,771,303.4,733.7,296z
	 M623.1,971.8c-20.5,0-39.1-0.9-57.7,0.2c-77.5,4.5-140.6,66.2-145.6,141.7c-2.9,44.1,5.1,57.8,48.4,65.6
	c135.9,24.6,271.7,51.8,410.7,22c47-10.1,95-15.5,141.9-25.7c29.1-6.3,36-18.7,36.2-47.9c0.4-103.7-94.6-175.9-202.2-153.6
	c4.2,63.7-5.9,100.8-39.6,144.9c-40.3,52.8-114.2,52.7-154.1-0.5C628.9,1075.7,612,1028.3,623.1,971.8z M645.3,947.7
	c6.7,17.8,8.1,34.2,17,42.8c20.8,20,44.9,36.6,68.3,53.8c3.4,2.5,11.8,2.4,15.3-0.1c23.4-17.2,47.5-33.8,68.2-53.8
	c8.8-8.5,10.2-24.8,16.9-42.7C766.5,966.3,709.4,966.1,645.3,947.7z M567.7,357.9c-48.4,29.3-83.4,116.2-66,162.1
	C556.1,479.9,592.1,430.2,567.7,357.9z M976.3,521.3c8.4-65.9-22.2-138.4-66.8-162.6C882.4,431.5,921.8,479.6,976.3,521.3z
	 M641.1,1005.4c-0.8,37.8,14.6,69.2,33.6,96c14.8-12.9,29.2-25.4,42.3-36.8C691.1,1044.4,666.7,1025.3,641.1,1005.4z M835.4,1005.2
	c-26.7,20.9-51.5,40.4-74.1,58.1c12.3,13.7,24.7,27.5,37.9,42.1C820.9,1074.2,836,1042.8,835.4,1005.2z"/>
<path class="st2" d="M768.7,697.4c-20.1,0-40.2,0-61.9,0c1.3,22.4-12.5,24.5-30.6,23.8c-28.6-1.1-57.3-1.2-85.8,0.2
	c-19.7,0.9-26.9-6.7-24.4-25.5c0.7-5.5,0.2-11.2,0.2-16.7c0.1-25.9,0.1-25.9,25.2-29.2c8-36,21.1-50.5,45.2-49.8
	c23.9,0.7,37.7,16.6,41.9,49.7c12.9,2.3,31.4-0.3,26.2,25.9c11.9,0,22.1,0,32.3,0c10.4,0,20.8,0,32.9,0
	c-0.5-18.6,7.3-28.4,25.7-24.2c11.4-39.6,23.7-52.7,47.4-51.3c23.2,1.4,35.5,16,41.5,50.5c26.2-4.2,27.5,12.4,25.8,31.8
	c-0.6,6.9-0.4,14,0,20.9c0.7,12.4-4.7,17.9-17.2,17.7c-34.9-0.3-69.8,0.8-104.6-1c-7.5-0.4-14.5-10.2-21.7-15.7
	C767.4,702,768.1,699.7,768.7,697.4z M587.9,698.1c31.2,0,62.6,0,94.7,0c0-8.5,0-16.3,0-24.1c-32.3,0-63.1,0-94.7,0
	C587.9,682.4,587.9,689.3,587.9,698.1z M888.1,699c0-9.9,0-17.2,0-25.3c-32.1,0-63,0-94,0c0,9.2,0,17.1,0,25.3
	C826,699,856.4,699,888.1,699z M653,652.7c1.7-2.2,3.5-4.4,5.2-6.6c-4.8-7.5-8.1-17.7-14.9-21.7c-5-3-16.1,0.1-21.9,4.2
	c-4,2.8-3.5,12-5,18.3C628.6,648.8,640.8,650.7,653,652.7z M839.2,656.9c9.4-6.5,15.7-10.8,21.9-15.2c-6.5-6.7-12.9-18.3-19.7-18.6
	c-6.7-0.3-13.9,10.9-20.8,17.1C826.1,645.2,831.5,650.1,839.2,656.9z"/>
<path class="st0" d="M741.8,576c-39.7,0-79.5,0.5-119.2-0.5c-7.2-0.2-14.3-6.8-21.4-10.5c7.3-3.3,14.6-9.4,21.9-9.5
	c79.5-0.7,159-0.7,238.4,0c6.7,0.1,13.4,5.9,20.1,9.1c-6.9,3.8-13.7,10.7-20.6,10.9C821.3,576.6,781.6,576,741.8,576z"/>
<path class="st2" d="M742.4,530.6c-32.1,0-64.2,0.6-96.3-0.5c-6.5-0.2-12.8-6.8-19.2-10.5c6.6-3.3,13.2-9.5,19.8-9.6
	c63.5-0.7,127-0.7,190.4,0.1c6.4,0.1,12.7,6.6,19,10.2c-6.6,3.4-13,9.6-19.7,9.8C805.2,531.2,773.8,530.6,742.4,530.6z"/>
</svg>
